<svg width="340" height="93" viewBox="0 0 340 93" fill="none" xmlns="http://www.w3.org/2000/svg">
<g filter="url(#filter0_n_87_581)">
<path d="M47.971 92.408C41.315 92.408 35.1283 91.256 29.411 88.952C23.6937 86.5627 18.659 83.2773 14.307 79.096C9.955 74.8293 6.54167 69.9227 4.067 64.376C1.67767 58.744 0.483 52.6853 0.483 46.2C0.483 39.7147 1.67767 33.6987 4.067 28.152C6.54167 22.52 9.91233 17.6133 14.179 13.432C18.4457 9.16533 23.4377 5.88 29.155 3.576C34.9577 1.18666 41.1443 -0.00800323 47.715 -0.00800323C55.139 -0.00800323 62.1363 1.48533 68.707 4.47199C75.2777 7.37333 80.6963 11.4693 84.963 16.76L72.035 28.664C68.963 24.824 65.3363 21.9227 61.155 19.96C56.9737 17.9973 52.4937 17.016 47.715 17.016C43.7043 17.016 39.9923 17.784 36.579 19.32C33.1657 20.7707 30.179 22.8187 27.619 25.464C25.059 28.024 23.0537 31.096 21.603 34.68C20.2377 38.1787 19.555 42.0187 19.555 46.2C19.555 50.3813 20.2803 54.264 21.731 57.848C23.1817 61.432 25.187 64.5467 27.747 67.192C30.3923 69.752 33.4217 71.8 36.835 73.336C40.3337 74.7867 44.131 75.512 48.227 75.512C52.4937 75.512 56.3337 74.744 59.747 73.208C63.1603 71.5867 66.019 69.368 68.323 66.552C70.7123 63.6507 72.291 60.408 73.059 56.824H46.563V40.696H92.899V46.328C92.899 52.984 91.747 59.128 89.443 64.76C87.2243 70.3067 84.1097 75.1707 80.099 79.352C76.0883 83.448 71.3523 86.648 65.891 88.952C60.4297 91.256 54.4563 92.408 47.971 92.408ZM98.012 91V24.312H115.548V31.736C117.681 28.8347 120.241 26.616 123.228 25.08C126.215 23.544 129.585 22.776 133.34 22.776C136.583 22.8613 139.015 23.3733 140.636 24.312V39.672C139.356 39.0747 137.948 38.648 136.412 38.392C134.876 38.0507 133.297 37.88 131.676 37.88C128.263 37.88 125.148 38.7333 122.332 40.44C119.516 42.1467 117.255 44.5787 115.548 47.736V91H98.012ZM173.877 92.28C167.221 92.28 161.162 90.744 155.701 87.672C150.325 84.6 146.058 80.4613 142.901 75.256C139.744 70.0507 138.165 64.2053 138.165 57.72C138.165 51.2347 139.658 45.3893 142.645 40.184C145.717 34.9787 149.856 30.84 155.061 27.768C160.266 24.696 166.069 23.16 172.469 23.16C178.869 23.16 184.544 24.7387 189.493 27.896C194.442 31.0533 198.325 35.32 201.141 40.696C204.042 46.072 205.493 52.1733 205.493 59V63.608H156.085C156.853 66.2533 158.09 68.6427 159.797 70.776C161.589 72.9093 163.765 74.5733 166.325 75.768C168.97 76.9627 171.786 77.56 174.773 77.56C177.76 77.56 180.49 77.0907 182.965 76.152C185.525 75.2133 187.701 73.8907 189.493 72.184L201.013 82.68C196.917 86.008 192.693 88.44 188.341 89.976C184.074 91.512 179.253 92.28 173.877 92.28ZM155.829 51.064H188.213C187.616 48.4187 186.506 46.1147 184.885 44.152C183.349 42.104 181.472 40.5253 179.253 39.416C177.12 38.2213 174.73 37.624 172.085 37.624C169.354 37.624 166.88 38.1787 164.661 39.288C162.442 40.3973 160.565 41.976 159.029 44.024C157.578 45.9867 156.512 48.3333 155.829 51.064ZM230.71 92.152C225.931 92.152 221.707 91.2987 218.038 89.592C214.369 87.8 211.51 85.368 209.462 82.296C207.414 79.224 206.39 75.6827 206.39 71.672C206.39 65.272 208.779 60.3227 213.558 56.824C218.422 53.24 225.078 51.448 233.526 51.448C239.329 51.448 244.79 52.344 249.91 54.136V49.272C249.91 45.432 248.715 42.5307 246.326 40.568C243.937 38.6053 240.438 37.624 235.83 37.624C233.014 37.624 229.985 38.0933 226.742 39.032C223.499 39.8853 219.745 41.2507 215.478 43.128L209.078 30.2C214.369 27.8107 219.403 26.0187 224.182 24.824C229.046 23.6293 233.91 23.032 238.774 23.032C247.734 23.032 254.689 25.208 259.638 29.56C264.673 33.8267 267.19 39.8853 267.19 47.736V91H249.91V86.264C247.179 88.312 244.235 89.8053 241.078 90.744C237.921 91.6827 234.465 92.152 230.71 92.152ZM223.03 71.288C223.03 73.848 224.139 75.896 226.358 77.432C228.577 78.8827 231.521 79.608 235.19 79.608C238.091 79.608 240.779 79.2667 243.254 78.584C245.729 77.816 247.947 76.7067 249.91 75.256V65.528C247.777 64.6747 245.558 64.0347 243.254 63.608C240.95 63.1813 238.475 62.968 235.83 62.968C231.819 62.968 228.662 63.736 226.358 65.272C224.139 66.7227 223.03 68.728 223.03 71.288ZM303.803 92.024C296.379 92.024 290.747 90.36 286.907 87.032C283.152 83.6187 281.275 78.6693 281.275 72.184V38.904H267.579V24.312H281.275V7.28799L298.811 3.31999V24.312H317.883V38.904H298.811V68.6C298.811 71.672 299.494 73.8907 300.859 75.256C302.224 76.536 304.614 77.176 308.027 77.176C309.734 77.176 311.27 77.0907 312.635 76.92C314.086 76.664 315.664 76.2373 317.371 75.64V90.104C315.579 90.7013 313.318 91.1707 310.587 91.512C307.942 91.8533 305.68 92.024 303.803 92.024ZM329.125 92.28C326.309 92.28 323.877 91.256 321.829 89.208C319.781 87.16 318.757 84.728 318.757 81.912C318.757 79.0107 319.781 76.536 321.829 74.488C323.877 72.44 326.309 71.416 329.125 71.416C331.941 71.416 334.373 72.44 336.421 74.488C338.469 76.536 339.493 79.0107 339.493 81.912C339.493 84.728 338.469 87.16 336.421 89.208C334.373 91.256 331.941 92.28 329.125 92.28Z" fill="url(#paint0_linear_87_581)"/>
</g>
<defs>
<filter id="filter0_n_87_581" x="0.48291" y="-0.00805664" width="339.01" height="92.416" filterUnits="userSpaceOnUse" color-interpolation-filters="sRGB">
<feFlood flood-opacity="0" result="BackgroundImageFix"/>
<feBlend mode="normal" in="SourceGraphic" in2="BackgroundImageFix" result="shape"/>
<feTurbulence type="fractalNoise" baseFrequency="10 10" stitchTiles="stitch" numOctaves="3" result="noise" seed="4256" />
<feColorMatrix in="noise" type="luminanceToAlpha" result="alphaNoise" />
<feComponentTransfer in="alphaNoise" result="coloredNoise1">
<feFuncA type="discrete" tableValues="0 0 0 0 0 0 0 0 0 1 1 1 1 1 1 1 1 1 1 1 1 1 1 1 1 1 1 1 1 1 1 1 1 1 1 1 1 1 1 1 0 0 0 0 0 0 0 0 0 0 0 0 0 0 0 0 0 0 0 0 0 0 0 0 0 0 0 0 0 0 0 0 0 0 0 0 0 0 0 0 0 0 0 0 0 0 0 0 0 0 0 0 0 0 0 0 0 0 0 0 "/>
</feComponentTransfer>
<feComposite operator="in" in2="shape" in="coloredNoise1" result="noise1Clipped" />
<feFlood flood-color="#000000" result="color1Flood" />
<feComposite operator="in" in2="noise1Clipped" in="color1Flood" result="color1" />
<feMerge result="effect1_noise_87_581">
<feMergeNode in="shape" />
<feMergeNode in="color1" />
</feMerge>
</filter>
<linearGradient id="paint0_linear_87_581" x1="158.651" y1="-28.6322" x2="158.651" y2="155.273" gradientUnits="userSpaceOnUse">
<stop stop-color="white"/>
<stop offset="1" stop-color="white" stop-opacity="0"/>
</linearGradient>
</defs>
</svg>
